<svg width="260" height="260" viewBox="0 0 260 260" fill="none" xmlns="http://www.w3.org/2000/svg">
<path d="M158.552 131.306C158.276 133.097 158.133 134.639 158.133 135.782C158.133 142.928 163.923 148.717 171.069 148.717C178.215 148.717 184.005 142.928 184.005 135.782C184.005 134.214 183.733 131.894 183.22 129.209H213.011C212.981 175.525 175.41 213.036 129.125 213.036V183.244C126.44 183.757 124.12 184.027 122.552 184.027C115.406 184.027 109.616 178.237 109.616 171.091C109.616 163.945 115.406 158.156 122.552 158.156C124.12 158.156 126.44 158.427 129.125 158.94V129.209H158.916C158.777 129.938 158.657 130.638 158.552 131.306Z" fill="#BCBCBC" stroke="white" stroke-width="9" stroke-linecap="round" stroke-linejoin="round"/>
<path d="M74.7435 129.628C74.2304 126.943 73.9607 124.623 73.9607 123.055C73.9607 115.909 79.7504 110.12 86.8964 110.12C94.0425 110.12 99.8321 115.909 99.8321 123.055C99.8321 124.623 99.5605 126.943 99.0473 129.628H128.779V159.419C126.094 158.906 123.774 158.636 122.206 158.636C115.06 158.636 109.27 164.426 109.27 171.572C109.27 178.718 115.06 184.508 122.206 184.508C123.774 184.508 126.094 184.236 128.779 183.723V213.515C82.4631 213.484 44.952 175.913 44.952 129.628H74.7435Z" fill="#BCBCBC" stroke="white" stroke-width="9" stroke-linecap="round" stroke-linejoin="round"/>
<path d="M128.863 75.2466C131.548 74.7335 133.868 74.4638 135.435 74.4638C142.582 74.4638 148.371 80.2535 148.371 87.3995C148.371 94.5456 142.582 100.335 135.435 100.335C133.868 100.335 131.548 100.064 128.863 99.5504V129.282H99.0714C99.5846 126.597 99.8542 124.277 99.8542 122.709C99.8542 115.563 94.0645 109.773 86.9185 109.773C79.7725 109.773 73.9828 115.563 73.9828 122.709C73.9828 124.277 74.2545 126.597 74.7676 129.282H44.9761C45.0063 82.9662 82.5778 45.4551 128.863 45.4551V75.2466Z" fill="#BCBCBC" stroke="white" stroke-width="9" stroke-linecap="round" stroke-linejoin="round"/>
<path d="M220.061 99.7678C220.291 102.491 220.316 104.827 220.153 106.386C219.406 113.493 213.042 118.646 205.936 117.899C198.829 117.152 193.676 110.789 194.423 103.682C194.587 102.123 195.099 99.8436 195.89 97.2274L166.322 94.1196L169.436 64.4913C172.052 65.2822 174.332 65.793 175.891 65.9568C182.998 66.7038 189.361 61.551 190.108 54.4441C190.855 47.3372 185.702 40.9741 178.595 40.2271C177.036 40.0633 174.7 40.0909 171.977 40.3207L175.091 10.6923C221.149 15.5636 254.528 56.8503 249.689 102.882L220.061 99.7678Z" fill="#0BC294" stroke="#26FFC9" stroke-width="9" stroke-linecap="round" stroke-linejoin="round"/>
</svg>
